<svg width="1222" height="632" viewBox="0 0 1222 632" fill="none" xmlns="http://www.w3.org/2000/svg">
<g clip-path="url(#clip0)">
<path fill-rule="evenodd" clip-rule="evenodd" d="M318 507C424.036 507 510 421.036 510 315C510 208.964 424.036 123 318 123C211.964 123 126 208.964 126 315C126 421.036 211.964 507 318 507ZM318.783 488.981C414.869 488.981 492.755 411.086 492.755 315.009C492.755 218.932 414.869 141.028 318.783 141.028C222.698 141.028 144.812 218.914 144.812 315C144.812 411.086 222.698 488.981 318.783 488.981ZM318 475.653C406.728 475.653 478.653 403.728 478.653 315C478.653 226.272 406.728 154.347 318 154.347C229.272 154.347 157.347 226.272 157.347 315C157.347 403.728 229.272 475.653 318 475.653ZM318.396 456.067C396.516 456.067 459.85 392.733 459.85 314.613C459.85 236.493 396.516 173.159 318.396 173.159C240.276 173.159 176.942 236.484 176.942 314.613C176.942 392.742 240.267 456.067 318.396 456.067ZM317.208 341.088C309.346 341.088 301.71 341.745 294.316 342.997L305.699 323.231C309.544 322.979 313.389 322.853 317.208 322.853C326.15 322.853 335.245 323.591 344.034 325.005L299.836 248.235L226.255 376.028L215.737 357.766L299.665 211.998L299.836 212.296L299.999 212.007L401.289 387.924H380.262L356.587 346.806C344.25 343.078 331.067 341.088 317.208 341.088ZM407.836 376.334L309.769 206.019H330.796L418.345 358.072L407.836 376.334ZM310.508 290.047L270.245 359.981C284.654 355.622 301.611 353.677 317.613 353.677C318.91 353.677 320.206 353.695 321.503 353.722C330.589 353.938 339.775 354.902 348.573 356.55L362.008 379.883C348.257 374.867 333.372 371.913 317.613 371.913C294.307 371.913 272.902 377.694 254.261 387.744L254.558 387.213L254.153 387.915H233.126L299.999 271.775L310.508 290.047Z" fill="url(#paint0_linear)"/>
<path fill-rule="evenodd" clip-rule="evenodd" d="M606.957 334.073H642.159L624.469 282.779L606.957 334.073ZM656 376.586L648.162 353.846H600.776L592.937 376.586H566L609.765 253H639.351L682.937 376.586H656Z" fill="url(#paint1_linear)"/>
<path fill-rule="evenodd" clip-rule="evenodd" d="M712.474 363.298C703.611 354.242 699.183 342.223 699.189 327.241C699.196 312.259 703.624 300.243 712.474 291.193C721.325 282.124 732.801 277.592 746.903 277.599C758.67 277.599 768.519 280.446 776.45 286.141C784.38 291.836 789.672 299.903 792.324 310.344H765.784C762.642 302.336 756.358 298.331 746.933 298.331C739.829 298.331 734.266 300.915 730.244 306.083C726.223 311.25 724.212 318.303 724.212 327.241C724.212 336.192 726.223 343.248 730.244 348.409C734.266 353.57 739.819 356.137 746.903 356.11C756.229 356.11 762.513 352.047 765.754 343.92H792.324C789.862 353.542 784.164 362.032 776.182 367.975C768.205 373.907 758.445 376.873 746.903 376.873C732.807 376.873 721.331 372.348 712.474 363.298Z" fill="url(#paint2_linear)"/>
<path fill-rule="evenodd" clip-rule="evenodd" d="M882.344 348.596C887.536 343.488 890.132 336.468 890.132 327.537C890.132 318.606 887.536 311.583 882.344 306.468C879.981 304.051 877.159 302.127 874.04 300.811C870.922 299.495 867.572 298.813 864.186 298.805C860.8 298.797 857.446 299.462 854.321 300.763C851.197 302.064 848.365 303.973 845.991 306.379C840.864 311.441 838.301 318.435 838.301 327.359C838.301 336.284 840.894 343.337 846.08 348.517C848.418 350.96 851.229 352.906 854.342 354.238C857.455 355.57 860.807 356.261 864.195 356.268C867.583 356.275 870.937 355.6 874.056 354.281C877.175 352.963 879.994 351.029 882.344 348.596ZM825.591 363.783C816.788 354.304 812.389 342.2 812.396 327.468C812.402 312.737 816.771 300.694 825.502 291.341C834.24 281.975 845.342 277.292 858.809 277.292C872.276 277.292 882.552 282.829 889.636 293.902V278.706H914.44V376.586H889.636V360.154C882.188 372.058 871.85 378.007 858.621 378C845.392 377.993 834.382 373.254 825.591 363.783Z" fill="url(#paint3_linear)"/>
<path fill-rule="evenodd" clip-rule="evenodd" d="M945.198 377.575H970.002V253.989H945.198V377.575Z" fill="url(#paint4_linear)"/>
<path fill-rule="evenodd" clip-rule="evenodd" d="M1064.56 348.201C1069.75 343.093 1072.34 336.073 1072.33 327.142C1072.33 318.211 1069.74 311.188 1064.56 306.073C1062.2 303.653 1059.37 301.727 1056.25 300.41C1053.14 299.092 1049.79 298.409 1046.4 298.401C1043.01 298.393 1039.66 299.059 1036.53 300.361C1033.41 301.664 1030.58 303.575 1028.2 305.984C1023.08 311.033 1020.51 318.026 1020.5 326.964C1020.5 335.902 1023.09 342.954 1028.28 348.122C1030.62 350.566 1033.43 352.514 1036.54 353.848C1039.65 355.182 1043.01 355.874 1046.4 355.882C1049.78 355.89 1053.14 355.215 1056.26 353.896C1059.38 352.578 1062.2 350.644 1064.55 348.211L1064.56 348.201ZM1008.15 362.784C999.354 353.312 994.952 341.201 994.945 326.45C994.939 311.698 999.311 299.653 1008.06 290.313C1016.8 280.947 1027.9 276.264 1041.37 276.264C1054.84 276.264 1065.11 281.8 1072.2 292.874V277.717H1097V375.597H1072.2V359.175C1064.75 371.04 1054.42 376.972 1041.19 376.972C1027.96 376.972 1016.95 372.246 1008.15 362.794V362.784Z" fill="url(#paint5_linear)"/>
</g>
<defs>
<linearGradient id="paint0_linear" x1="428.54" y1="484.378" x2="204.017" y2="140.345" gradientUnits="userSpaceOnUse">
<stop offset="0.0076157" stop-color="#645AFF"/>
<stop offset="0.5038" stop-color="#E40C5B"/>
<stop offset="1" stop-color="#FF4C3B"/>
</linearGradient>
<linearGradient id="paint1_linear" x1="1157.33" y1="393.888" x2="1074.64" y2="116.945" gradientUnits="userSpaceOnUse">
<stop offset="0.01" stop-color="#645AFF"/>
<stop offset="0.5" stop-color="#E40C5B"/>
<stop offset="1" stop-color="#FF4C3B"/>
</linearGradient>
<linearGradient id="paint2_linear" x1="1157.33" y1="393.888" x2="1074.64" y2="116.945" gradientUnits="userSpaceOnUse">
<stop offset="0.01" stop-color="#645AFF"/>
<stop offset="0.5" stop-color="#E40C5B"/>
<stop offset="1" stop-color="#FF4C3B"/>
</linearGradient>
<linearGradient id="paint3_linear" x1="1157.33" y1="393.888" x2="1074.64" y2="116.945" gradientUnits="userSpaceOnUse">
<stop offset="0.01" stop-color="#645AFF"/>
<stop offset="0.5" stop-color="#E40C5B"/>
<stop offset="1" stop-color="#FF4C3B"/>
</linearGradient>
<linearGradient id="paint4_linear" x1="1157.33" y1="393.888" x2="1074.64" y2="116.945" gradientUnits="userSpaceOnUse">
<stop offset="0.01" stop-color="#645AFF"/>
<stop offset="0.5" stop-color="#E40C5B"/>
<stop offset="1" stop-color="#FF4C3B"/>
</linearGradient>
<linearGradient id="paint5_linear" x1="1157.33" y1="393.888" x2="1074.64" y2="116.945" gradientUnits="userSpaceOnUse">
<stop offset="0.01" stop-color="#645AFF"/>
<stop offset="0.5" stop-color="#E40C5B"/>
<stop offset="1" stop-color="#FF4C3B"/>
</linearGradient>
<clipPath id="clip0">
<rect width="1222" height="632" fill="white"/>
</clipPath>
</defs>
</svg>
